<svg xmlns="http://www.w3.org/2000/svg" xmlns:xlink="http://www.w3.org/1999/xlink" width="40" height="40" viewBox="0 0 40 40">
  <defs>
    <clipPath id="clip-icon_2">
      <rect width="40" height="40"/>
    </clipPath>
  </defs>
  <g id="icon_2" data-name="icon 2" clip-path="url(#clip-icon_2)">
    <g id="Group_471" data-name="Group 471" transform="translate(-649 -238)">
      <path id="alarm_add_FILL0_wght400_GRAD0_opsz48" d="M19.009,23.772h2.483V13.78H19.009v9.992ZM20.25,37.13a14.529,14.529,0,0,1-5.772-1.159,14.853,14.853,0,0,1-4.717-3.165,15.14,15.14,0,0,1-3.186-4.717,14.817,14.817,0,0,1,0-11.585,15.4,15.4,0,0,1,3.186-4.737,14.683,14.683,0,0,1,4.717-3.186,14.957,14.957,0,0,1,11.544,0A14.854,14.854,0,0,1,33.945,16.5a15.06,15.06,0,0,1,0,11.585,14.683,14.683,0,0,1-3.186,4.717,15.1,15.1,0,0,1-4.737,3.165A14.529,14.529,0,0,1,20.25,37.13Zm0-26.771,0,2M9.286,4.65l1.738,1.738L4.238,12.925,2.5,11.187Zm21.929,0L38,11.187l-1.738,1.738L29.477,6.388Zm-10.964,30a11.937,11.937,0,0,0,8.772-3.6,11.937,11.937,0,0,0,3.6-8.772,11.937,11.937,0,0,0-3.6-8.772A11.937,11.937,0,0,0,20.25,9.9a11.937,11.937,0,0,0-8.772,3.6,11.937,11.937,0,0,0-3.6,8.772,11.937,11.937,0,0,0,3.6,8.772A11.937,11.937,0,0,0,20.25,34.647Z" transform="translate(649.5 237.11)" fill="#0058ff"/>
      <circle id="Ellipse_12" data-name="Ellipse 12" cx="2" cy="2" r="2" transform="translate(667.8 264)" fill="#0058ff"/>
    </g>
  </g>
</svg>
