<svg xmlns="http://www.w3.org/2000/svg" xmlns:xlink="http://www.w3.org/1999/xlink" width="64" height="64" viewBox="0 0 64 64">
  <defs>
    <clipPath id="clip-Icon_2">
      <rect width="64" height="64"/>
    </clipPath>
  </defs>
  <g id="Icon_2" data-name="Icon 2" clip-path="url(#clip-Icon_2)">
    <g id="ic-sessions" transform="translate(1 1)">
      <g id="Oval" fill="rgba(0,88,255,0.1)" stroke="rgba(0,88,255,0.1)" stroke-miterlimit="10" stroke-width="1">
        <circle cx="31" cy="31" r="31" stroke="none"/>
        <circle cx="31" cy="31" r="30.5" fill="none"/>
      </g>
    </g>
    <path id="alarm_off_FILL0_wght400_GRAD0_opsz48" d="M29.932,27.31l-1.7-1.7a9.634,9.634,0,0,0,.942-2.468,11.72,11.72,0,0,0,.3-2.656,10.286,10.286,0,0,0-3.353-8.025,11.518,11.518,0,0,0-8.138-3.2,10.913,10.913,0,0,0-2.543.3,9.34,9.34,0,0,0-2.355.9L11.433,8.811A12.048,12.048,0,0,1,14.6,7.436,13.07,13.07,0,0,1,17.988,7a13.812,13.812,0,0,1,5.331,1.036,13.991,13.991,0,0,1,4.389,2.845,13.355,13.355,0,0,1,2.976,4.276A12.6,12.6,0,0,1,31.74,20.49a15.108,15.108,0,0,1-.49,3.5A14.5,14.5,0,0,1,29.932,27.31Zm2.637-15.146L26.39,5.948l1.7-1.469L34.3,10.431ZM32.117,35.9l-5.011-5.011a12.318,12.318,0,0,1-4.031,2.355,14.138,14.138,0,0,1-4.86.848A13.226,13.226,0,0,1,8.72,30.135,13.857,13.857,0,0,1,5.857,25.8,13.555,13.555,0,0,1,4.8,20.453a13.081,13.081,0,0,1,.791-4.559,14.673,14.673,0,0,1,2.449-4.182L6.083,9.753,3.86,11.976l-1.7-1.7L4.387,8.057,1.75,5.42,3.37,3.8,33.737,34.28Zm-13.9-4.144a11.922,11.922,0,0,0,3.805-.7,11.591,11.591,0,0,0,3.391-1.9L9.549,13.294a11.114,11.114,0,0,0-2.6,7.2,11.06,11.06,0,0,0,3.24,8.025A10.525,10.525,0,0,0,18.214,31.756ZM17.5,21.206ZM20.663,18.042Z" transform="translate(14.298 12.7)" fill="#0058ff"/>
  </g>
</svg>
