<svg xmlns="http://www.w3.org/2000/svg" xmlns:xlink="http://www.w3.org/1999/xlink" width="64" height="64" viewBox="0 0 64 64">
  <defs>
    <clipPath id="clip-Icon_4">
      <rect width="64" height="64"/>
    </clipPath>
  </defs>
  <g id="Icon_4" data-name="Icon 4" clip-path="url(#clip-Icon_4)">
    <g id="ic-sessions" transform="translate(1 1)">
      <g id="Oval" fill="rgba(0,88,255,0.1)" stroke="rgba(0,88,255,0.1)" stroke-miterlimit="10" stroke-width="1">
        <circle cx="31" cy="31" r="31" stroke="none"/>
        <circle cx="31" cy="31" r="30.5" fill="none"/>
      </g>
    </g>
    <path id="alarm_on_FILL0_wght400_GRAD0_opsz48" d="M19.688,29.566l9.9-9.9-1.91-1.91-7.994,7.994-4.175-4.175-1.91,1.91Zm1.865,9.949a15.6,15.6,0,0,1-6.2-1.244,15.943,15.943,0,0,1-5.063-3.4,16.252,16.252,0,0,1-3.42-5.063,15.9,15.9,0,0,1,0-12.436,16.527,16.527,0,0,1,3.42-5.085,15.761,15.761,0,0,1,5.063-3.42,16.056,16.056,0,0,1,12.391,0,15.945,15.945,0,0,1,8.505,8.505,16.166,16.166,0,0,1,0,12.436,15.761,15.761,0,0,1-3.42,5.063,16.21,16.21,0,0,1-5.085,3.4,15.6,15.6,0,0,1-6.2,1.244ZM21.554,23.659ZM9.784,4.65l1.865,1.865L4.365,13.533,2.5,11.667Zm23.539,0,7.284,7.017-1.865,1.865L31.458,6.515Zm-11.77,32.2a12.813,12.813,0,0,0,9.416-3.864,12.813,12.813,0,0,0,3.864-9.416,12.813,12.813,0,0,0-3.864-9.416,12.813,12.813,0,0,0-9.416-3.864,12.813,12.813,0,0,0-9.416,3.864A12.813,12.813,0,0,0,8.274,23.57a12.813,12.813,0,0,0,3.864,9.416A12.813,12.813,0,0,0,21.554,36.85Z" transform="translate(10.5 10.11)" fill="#0058ff"/>
  </g>
</svg>
