<svg xmlns="http://www.w3.org/2000/svg" xmlns:xlink="http://www.w3.org/1999/xlink" width="64" height="64" viewBox="0 0 64 64">
  <defs>
    <clipPath id="clip-Icon_1">
      <rect width="64" height="64"/>
    </clipPath>
  </defs>
  <g id="Icon_1" data-name="Icon 1" clip-path="url(#clip-Icon_1)">
    <g id="ic-sessions" transform="translate(1 1)">
      <g id="Oval" fill="rgba(0,88,255,0.1)" stroke="rgba(0,88,255,0.1)" stroke-miterlimit="10" stroke-width="1">
        <circle cx="31" cy="31" r="31" stroke="none"/>
        <circle cx="31" cy="31" r="30.5" fill="none"/>
      </g>
      <path id="av_timer_FILL0_wght400_GRAD0_opsz48" d="M21.5,37a15,15,0,0,1-6.049-1.227,15.572,15.572,0,0,1-8.224-8.224A15,15,0,0,1,6,21.5a14.5,14.5,0,0,1,.431-3.531,14.974,14.974,0,0,1,1.249-3.294,16.036,16.036,0,0,1,1.959-2.928,15,15,0,0,1,2.6-2.433L23.782,20.854l-1.808,1.851-9.9-9.9a13.21,13.21,0,0,0-2.583,4.026,12.253,12.253,0,0,0-.9,4.672,12.456,12.456,0,0,0,3.767,9.149A12.456,12.456,0,0,0,21.5,34.417a12.456,12.456,0,0,0,9.149-3.767A12.456,12.456,0,0,0,34.417,21.5a12.624,12.624,0,0,0-3.4-8.8,12.2,12.2,0,0,0-8.482-4.069v4.306H19.95V6h1.464a15.148,15.148,0,0,1,6.071,1.227,15.951,15.951,0,0,1,4.951,3.315,15.572,15.572,0,0,1,3.337,4.908,15.525,15.525,0,0,1,0,12.1,15.572,15.572,0,0,1-8.224,8.224A15,15,0,0,1,21.5,37Zm-.086-4.435a1.617,1.617,0,1,1,1.163-.474A1.58,1.58,0,0,1,21.414,32.565Zm9.515-9.515a1.617,1.617,0,1,1,1.163-.474A1.58,1.58,0,0,1,30.929,23.05Zm-18.9,0a1.617,1.617,0,1,1,1.163-.474A1.58,1.58,0,0,1,12.028,23.05Z" transform="translate(10 10)" fill="#0058ff"/>
    </g>
  </g>
</svg>
