<svg xmlns="http://www.w3.org/2000/svg" xmlns:xlink="http://www.w3.org/1999/xlink" width="64" height="64" viewBox="0 0 64 64">
  <defs>
    <clipPath id="clip-Icon_6">
      <rect width="64" height="64"/>
    </clipPath>
  </defs>
  <g id="Icon_6" data-name="Icon 6" clip-path="url(#clip-Icon_6)">
    <g id="ic-sessions" transform="translate(1 1)">
      <g id="Oval" fill="rgba(0,88,255,0.1)" stroke="rgba(0,88,255,0.1)" stroke-miterlimit="10" stroke-width="1">
        <circle cx="31" cy="31" r="31" stroke="none"/>
        <circle cx="31" cy="31" r="30.5" fill="none"/>
      </g>
    </g>
    <path id="published_with_changes_FILL0_wght400_GRAD0_opsz48" d="M19.122,38.333a16.2,16.2,0,0,1-5.784-1.849,16.559,16.559,0,0,1-4.645-3.72,17.171,17.171,0,0,1-3.075-5.2A17.728,17.728,0,0,1,4.5,21.217a15.483,15.483,0,0,1,1.785-7.225,21.082,21.082,0,0,1,4.8-6.107H5.833V5.3h9.849v9.849H13.1V9.6A16.85,16.85,0,0,0,8.715,14.83,13.272,13.272,0,0,0,7.08,21.217a14.416,14.416,0,0,0,3.441,9.7,13.658,13.658,0,0,0,8.6,4.8Zm-.3-11.806-1.861-1.78,8.624-8.6,1.806,1.806Zm8.042,10.6V27.281h2.58v5.548a17.435,17.435,0,0,0,4.387-5.247,13.149,13.149,0,0,0,1.634-6.365,14.416,14.416,0,0,0-3.441-9.7,13.658,13.658,0,0,0-8.6-4.8V4.1A16.049,16.049,0,0,1,33.874,9.648a16.974,16.974,0,0,1,4.172,11.569,15.483,15.483,0,0,1-1.785,7.225,21.082,21.082,0,0,1-4.8,6.107h5.247v2.58Z" transform="translate(10.727 10.783)" fill="#0058ff"/>
    <rect id="Rectangle_656" data-name="Rectangle 656" width="2.7" height="13" transform="translate(26.939 28.349) rotate(-45)" fill="#0058ff"/>
  </g>
</svg>
